<svg version="1.1" xmlns="http://www.w3.org/2000/svg" xmlns:xlink="http://www.w3.org/1999/xlink" width="48" height="48"><defs><linearGradient x1="11.67152" y1="15.03384" x2="37.74268" y2="34.38037" gradientUnits="userSpaceOnUse" id="color-1"><stop offset="0.35" stop-color="#000000" stop-opacity="0.24"></stop><stop offset="1" stop-color="#000000" stop-opacity="0"></stop></linearGradient><filter id="dropshadow-base"><feColorMatrix type="matrix" values="0 0 0 0 0  0 0 0 0 0  0 0 0 0 0  0 0 0 .8 0"></feColorMatrix> <feOffset dx="0" dy="1"></feOffset> <feGaussianBlur stdDeviation="1"></feGaussianBlur> <feComposite in="SourceGraphic"></feComposite></filter><filter id="dropshadow-banner" x="-10%" y="-10%" width="120%" height="130%"><feColorMatrix type="matrix" values="0 0 0 0 0  0 0 0 0 0  0 0 0 0 0  0 0 0 .4 0"></feColorMatrix> <feOffset dx="0" dy="1"></feOffset> <feGaussianBlur stdDeviation="0.5"></feGaussianBlur> <feComposite in="SourceGraphic"></feComposite></filter></defs><g fill="none" fill-rule="nonzero" stroke="none" stroke-width="none" stroke-linecap="butt" stroke-linejoin="miter" stroke-miterlimit="10" stroke-dasharray="" stroke-dashoffset="0" font-family="none" font-weight="none" font-size="none" text-anchor="none" style="mix-blend-mode: normal"><path d="M2,24c0,-12.15026 9.84974,-22 22,-22c12.15026,0 22,9.84974 22,22c0,12.15026 -9.84974,22 -22,22c-12.15026,0 -22,-9.84974 -22,-22z" id="base 1 9" fill="#857f7e" stroke-width="1"></path><path d="M31.1603,17.13314c-0.69039,-0.43407 -1.50763,-0.68509 -2.38378,-0.68509c-2.4769,0 -4.48308,2.00618 -4.48308,4.48308c0,0.87495 0.25147,1.69229 0.68626,2.38315c0.69014,0.43428 1.50696,0.68571 2.38261,0.68571c2.4769,0 4.48308,-2.01179 4.48308,-4.48308c0,-0.87614 -0.25102,-1.69339 -0.68509,-2.38378zM22.87923,19.51692c0,-2.4769 2.00618,-4.48308 4.48308,-4.48308c1.23845,0 2.35922,0.50154 3.17038,1.3127l0,0l1.41421,1.41421c0.81116,0.81116 1.3127,1.93193 1.3127,3.17038c0,2.47129 -2.00618,4.48308 -4.48308,4.48308c-1.23775,0 -2.35795,-0.50237 -3.169,-1.31342l-1.41421,-1.41421c-0.81197,-0.81197 -1.31408,-1.9333 -1.31408,-3.16966zM16.44804,19.81036l-1.41421,-1.41421h2.24154l1.41421,1.41421v1.9481h1.9481l1.41421,1.41421v2.24154h-3.36231v3.36231h-2.24154l-1.41421,-1.41421l0,-1.9481h-1.9481l-1.41421,-1.41421v-2.24154h3.36231l1.41421,1.41421h-3.36231l0,0.82733l1.9481,0l1.41421,1.41421v1.9481l0.82733,0v-3.36231h3.36231l0,-0.82733h-1.9481l-1.41421,-1.41421l0,-1.9481zM19.81035,32.96616h16.51812v-2.24154c0,-0.39464 -0.10438,-0.76327 -0.29246,-1.10585c-1.99765,-1.30813 -5.28344,-1.96301 -7.25949,-1.96301c0,0 -0.00001,0 -0.00001,0c-2.98686,0 -8.96616,1.49624 -8.96616,4.48308zM27.36231,26.24154c0,0 0,0 0,0c2.29297,0 6.3495,0.88179 8.11053,2.64282l1.41421,1.41421c0.53292,0.53292 0.85563,1.14636 0.85563,1.84026v2.24154h-17.93233l-1.41421,-1.41421v-2.24154c0,-2.98684 5.9793,-4.48308 8.96616,-4.48308c0,0 0.00001,0 0.00001,0z" fill="url(#color-1)" stroke-width="1"></path><path d="M27.36231,24c2.4769,0 4.48308,-2.01178 4.48308,-4.48308c0,-2.4769 -2.00618,-4.48308 -4.48308,-4.48308c-2.4769,0 -4.48308,2.00618 -4.48308,4.48308c0,2.4713 2.00618,4.48308 4.48308,4.48308zM17.27537,21.75846v-3.36231h-2.24154v3.36231h-3.36231v2.24154h3.36231v3.36231h2.24154v-3.36231h3.36231v-2.24154zM27.36231,26.24154c-2.98685,0 -8.96617,1.49623 -8.96617,4.48308v2.24154h17.93234v-2.24154c0,-2.98685 -5.97931,-4.48308 -8.96617,-4.48308z" fill="none" stroke-width="0"></path><path d="M22.87923,19.51692c0,-2.4769 2.00618,-4.48308 4.48308,-4.48308c2.4769,0 4.48308,2.00618 4.48308,4.48308c0,2.4713 -2.00618,4.48308 -4.48308,4.48308c-2.4769,0 -4.48308,-2.01178 -4.48308,-4.48308zM20.63769,21.75846v2.24154h-3.36231v3.36231h-2.24154v-3.36231h-3.36231v-2.24154h3.36231v-3.36231h2.24154v3.36231zM36.32848,30.72463v2.24154h-17.93234v-2.24154c0,-2.98685 5.97931,-4.48308 8.96617,-4.48308c2.98685,0 8.96617,1.49623 8.96617,4.48308z" fill="#ffffff" stroke-width="0"></path><path d="M2,24c0,-12.15026 9.84974,-22 22,-22c12.15026,0 22,9.84974 22,22c0,12.15026 -9.84974,22 -22,22c-12.15026,0 -22,-9.84974 -22,-22z" id="base 1 5 1" fill="none" stroke-width="1"></path><path d="M2,24c0,-12.15026 9.84974,-22 22,-22c12.15026,0 22,9.84974 22,22c0,12.15026 -9.84974,22 -22,22c-12.15026,0 -22,-9.84974 -22,-22z" id="base 1 1 1" fill="none" stroke-width="1"></path><g fill="#000000" stroke-width="1" font-family="Roboto, sans-serif" font-weight="normal" font-size="14" text-anchor="start"></g><rect x="2" y="2" width="44" height="22" fill="none" stroke-width="1"></rect><path d="M2,24v-22h44v22z" fill="none" stroke-width="1"></path><path d="M2,24v-22h44v22z" fill="none" stroke-width="1"></path><path d="M2,24v-22h44v22z" fill="none" stroke-width="1"></path><path d="M2,24v-22h44v22z" fill="none" stroke-width="1"></path><g fill="#000000" stroke-width="1" font-family="Roboto, sans-serif" font-weight="normal" font-size="14" text-anchor="start"></g><rect x="2" y="2" width="44" height="22" fill="none" stroke-width="1"></rect><path d="M2,24v-22h44v22z" fill="none" stroke-width="1"></path><path d="M2,24v-22h44v22z" fill="none" stroke-width="1"></path><path d="M2,24v-22h44v22z" fill="none" stroke-width="1"></path><path d="M2,24v-22h44v22z" fill="none" stroke-width="1"></path></g></svg>