<svg version="1.1" xmlns="http://www.w3.org/2000/svg" xmlns:xlink="http://www.w3.org/1999/xlink" width="48" height="48"><defs><linearGradient x1="13.76468" y1="16.55614" x2="35.71686" y2="32.92541" gradientUnits="userSpaceOnUse" id="color-1"><stop offset="0.35" stop-color="#000000" stop-opacity="0.24"></stop><stop offset="1" stop-color="#000000" stop-opacity="0"></stop></linearGradient><filter id="dropshadow-base"><feColorMatrix type="matrix" values="0 0 0 0 0  0 0 0 0 0  0 0 0 0 0  0 0 0 .8 0"></feColorMatrix> <feOffset dx="0" dy="1"></feOffset> <feGaussianBlur stdDeviation="1"></feGaussianBlur> <feComposite in="SourceGraphic"></feComposite></filter><filter id="dropshadow-banner" x="-10%" y="-10%" width="120%" height="130%"><feColorMatrix type="matrix" values="0 0 0 0 0  0 0 0 0 0  0 0 0 0 0  0 0 0 .4 0"></feColorMatrix> <feOffset dx="0" dy="1"></feOffset> <feGaussianBlur stdDeviation="0.5"></feGaussianBlur> <feComposite in="SourceGraphic"></feComposite></filter></defs><g fill="none" fill-rule="nonzero" stroke="none" stroke-width="none" stroke-linecap="butt" stroke-linejoin="miter" stroke-miterlimit="10" stroke-dasharray="" stroke-dashoffset="0" font-family="none" font-weight="none" font-size="none" text-anchor="none" style="mix-blend-mode: normal"><path d="M2,24c0,-12.15026 9.84974,-22 22,-22c12.15026,0 22,9.84974 22,22c0,12.15026 -9.84974,22 -22,22c-12.15026,0 -22,-9.84974 -22,-22z" id="base 1 5" fill="#a83c2d" stroke-width="1"></path><path d="M30.05837,18.4927c-0.52995,-0.2901 -1.13831,-0.45501 -1.78537,-0.45501c-2.05637,0 -3.72193,1.66556 -3.72193,3.72193c0,0.64624 0.16524,1.25463 0.45588,1.7849c0.52975,0.29029 1.1378,0.45548 1.7845,0.45548c2.05637,0 3.72193,-1.67022 3.72193,-3.72193c0,-0.64705 -0.16491,-1.25542 -0.45501,-1.78537zM23.06952,20.27807c0,-2.05637 1.66556,-3.72193 3.72193,-3.72193c1.02818,0 1.95867,0.41639 2.6321,1.08983l1.48155,1.48155c0.67344,0.67344 1.08983,1.60392 1.08983,2.6321c0,2.05171 -1.66556,3.72193 -3.72193,3.72193c-1.0276,0 -1.95761,-0.41708 -2.63096,-1.09043l-1.48155,-1.48155c-0.67411,-0.67411 -1.09097,-1.60506 -1.09097,-2.6315zM18.03768,20.82914v2.79145h-2.79145v0.37941h1.3099l1.48155,1.48155l0,1.3099h0.37941v-2.79145h2.79145v-0.37941h-1.3099l-1.48155,-1.48155v-1.3099zM21.20854,22.13903l1.48155,1.48155v1.86097h-2.79145v2.74459c1.36143,-1.57599 4.91628,-2.36517 6.89279,-2.36518c0,0 0.00001,0 0.00001,0c1.90366,0 5.27146,0.73207 6.7335,2.19412l1.48155,1.48155c0.44244,0.44244 0.71036,0.95173 0.71036,1.52781v1.86097l-1.48155,-1.48155v-1.86097c0,-0.26433 -0.0564,-0.51459 -0.16019,-0.75079c-1.67149,-0.99267 -4.23372,-1.48959 -5.80212,-1.48959c0,0 -0.00001,0 -0.00001,0c-2.47975,0 -7.44386,1.2422 -7.44386,3.72193l-1.48155,-1.48155c0,-0.48374 0.18891,-0.92038 0.51143,-1.3099h-1.82133l-1.48155,-1.48155v-1.3099h-1.3099l-1.48155,-1.48155v-1.86097h2.79145v-2.79145h1.86097l1.48155,1.48155v1.3099z" fill="url(#color-1)" stroke-width="1"></path><path d="M26.79145,24c2.05637,0 3.72193,-1.67022 3.72193,-3.72193c0,-2.05637 -1.66557,-3.72193 -3.72193,-3.72193c-2.05637,0 -3.72193,1.66557 -3.72193,3.72193c0,2.05172 1.66557,3.72193 3.72193,3.72193zM18.4171,22.13903v-2.79145h-1.86097v2.79145h-2.79145v1.86097h2.79145v2.79145h1.86097v-2.79145h2.79145v-1.86097zM26.79145,25.86097c-2.47974,0 -7.44387,1.2422 -7.44387,3.72193v1.86097h14.88774v-1.86097c0,-2.47974 -4.96413,-3.72193 -7.44387,-3.72193z" fill="none" stroke-width="0"></path><path d="M23.06952,20.27807c0,-2.05637 1.66557,-3.72193 3.72193,-3.72193c2.05637,0 3.72193,1.66557 3.72193,3.72193c0,2.05172 -1.66557,3.72193 -3.72193,3.72193c-2.05637,0 -3.72193,-1.67022 -3.72193,-3.72193zM21.20855,22.13903v1.86097h-2.79145v2.79145h-1.86097v-2.79145h-2.79145v-1.86097h2.79145v-2.79145h1.86097v2.79145zM34.23532,29.5829v1.86097h-14.88774v-1.86097c0,-2.47974 4.96413,-3.72193 7.44387,-3.72193c2.47974,0 7.44387,1.2422 7.44387,3.72193z" fill="#ffffff" stroke-width="0"></path><path d="M2,24c0,-12.15026 9.84974,-22 22,-22c12.15026,0 22,9.84974 22,22c0,12.15026 -9.84974,22 -22,22c-12.15026,0 -22,-9.84974 -22,-22z" id="base 1 1 1" fill="none" stroke-width="1"></path><g fill="#000000" stroke-width="1" font-family="Roboto, sans-serif" font-weight="normal" font-size="14" text-anchor="start"></g><rect x="2" y="2" width="44" height="22" fill="none" stroke-width="1"></rect><path d="M2,24v-22h44v22z" fill="none" stroke-width="1"></path><path d="M2,24v-22h44v22z" fill="none" stroke-width="1"></path><path d="M2,24v-22h44v22z" fill="none" stroke-width="1"></path><path d="M2,24v-22h44v22z" fill="none" stroke-width="1"></path></g></svg>